<svg version="1.1" id="Layer_1" xmlns="http://www.w3.org/2000/svg" xmlns:xlink="http://www.w3.org/1999/xlink" x="0px" y="0px"
	 width="100%" viewBox="0 0 650 300" enable-background="new 0 0 650 300" xml:space="preserve">
<path fill="#000000" opacity="1.000000" stroke="none" 
	d="
M485.000000,301.000000 
	C323.333344,301.000000 162.166672,301.000000 1.000000,301.000000 
	C1.000000,201.000000 1.000000,101.000000 1.000000,1.000000 
	C217.666672,1.000000 434.333344,1.000000 651.000000,1.000000 
	C651.000000,101.000000 651.000000,201.000000 651.000000,301.000000 
	C595.833313,301.000000 540.666687,301.000000 485.000000,301.000000 
M273.010590,176.711807 
	C274.336090,177.419937 275.661621,178.128052 277.705963,179.182373 
	C281.130890,180.066681 284.555847,180.950989 288.699036,182.198547 
	C292.100494,183.437790 295.507202,184.662872 298.902313,185.919220 
	C305.955933,188.529388 307.393677,187.781189 310.718414,179.719666 
	C311.516968,177.828934 312.315552,175.938202 313.745270,173.777191 
	C314.529480,172.194763 315.313690,170.612335 316.698730,168.808472 
	C317.149536,167.877777 317.600311,166.947098 318.668396,165.691711 
	C319.819275,163.471481 320.970154,161.251251 322.735046,158.781433 
	C323.182648,156.902054 323.630249,155.022675 324.792419,153.017853 
	C326.204803,150.699463 327.617157,148.381058 329.583679,145.768341 
	C330.358398,144.856354 331.133118,143.944366 332.005096,143.745850 
	C333.373505,146.168732 334.741913,148.591629 336.108002,151.610565 
	C336.462860,152.077057 336.817719,152.543549 337.030609,153.673141 
	C337.468964,154.321854 337.907318,154.970566 338.600677,155.920181 
	C338.600677,155.920181 338.972015,156.053070 339.019409,156.336136 
	C339.064301,156.721130 339.109192,157.106125 339.013092,158.095032 
	C339.640167,159.073288 340.267273,160.051544 340.982727,161.749527 
	C341.969788,163.533279 342.956848,165.317032 344.242706,167.776276 
	C346.148438,171.555832 348.054169,175.335388 350.210297,179.762634 
	C351.444153,181.856369 352.677979,183.950104 354.001709,186.648819 
	C354.298676,187.115799 354.595642,187.582764 354.974121,188.777054 
	C355.638062,190.225052 356.302002,191.673065 357.112305,193.562653 
	C357.294434,193.838593 357.548615,194.003433 357.987549,194.716080 
	C358.625916,195.822723 359.264313,196.929367 359.986267,198.767532 
	C361.225342,201.350388 362.464386,203.933243 363.958954,207.048706 
	C360.752380,207.048706 358.607666,206.950287 356.475098,207.069122 
	C351.980133,207.319595 347.491516,207.683868 342.113281,208.041580 
	C338.300262,208.494125 333.824768,206.509933 331.005157,211.500473 
	C331.005157,211.500473 331.081360,211.977280 330.950867,212.831726 
	C330.982605,214.558640 331.014374,216.285538 331.031769,218.566818 
	C331.329926,218.765610 331.628082,218.964417 331.898621,219.071457 
	C331.898621,219.071457 331.820648,219.127151 331.942780,219.819702 
	C332.349518,220.886261 332.756226,221.952820 333.245850,223.668869 
	C333.563751,224.458191 333.881653,225.247498 334.104614,226.782059 
	C334.454407,228.197464 334.804169,229.612854 335.022705,231.882050 
	C334.987762,239.166229 336.446320,240.882339 343.061768,240.998077 
	C346.368011,241.055923 349.678619,240.863327 353.911285,240.961304 
	C361.611145,240.918198 369.310974,240.875107 377.852295,240.976852 
	C379.558685,241.014206 381.265045,241.051559 383.152527,241.626343 
	C383.489441,242.070282 383.826324,242.514206 384.129120,243.601746 
	C384.822388,244.880417 385.515656,246.159103 386.597565,248.050064 
	C387.718781,250.071869 388.839996,252.093674 390.010132,254.724792 
	C390.324707,255.189392 390.639313,255.653976 390.975098,256.699127 
	C391.390778,257.531189 391.806458,258.363220 392.472656,259.872650 
	C393.283264,261.264832 394.093903,262.656982 394.991425,264.683746 
	C395.619324,265.471344 396.247223,266.258972 396.993042,267.769989 
	C399.290894,271.858551 401.588745,275.947113 404.010040,280.760071 
	C405.406189,283.878265 406.350891,287.809784 410.558228,287.895691 
	C421.910919,288.127411 433.271454,287.974976 446.355164,287.974976 
	C444.186737,284.271759 442.634979,281.621674 441.010773,278.240692 
	C439.036499,274.813995 437.062195,271.387299 434.999298,267.230011 
	C434.278381,265.482941 433.557465,263.735870 432.731201,261.332245 
	C431.842529,260.512848 430.953857,259.693451 430.225708,258.283966 
	C429.759033,256.848389 429.292389,255.412827 428.753540,253.320969 
	C427.784332,251.875015 426.815155,250.429062 425.781555,248.304184 
	C424.559143,246.522858 423.336700,244.741531 421.998627,242.228043 
	C421.279755,240.476929 420.560852,238.725815 419.908783,236.444550 
	C419.618500,236.255478 419.328247,236.066406 419.005646,235.164169 
	C418.018280,233.396652 417.030884,231.629135 416.025513,229.156921 
	C415.059784,227.415741 414.094055,225.674561 413.037598,223.214493 
	C411.377747,220.426285 409.717865,217.638077 407.994812,214.197327 
	C407.006226,213.099609 406.017609,212.001892 404.995331,210.267181 
	C404.359619,209.495575 403.723938,208.723969 403.013123,207.281265 
	C402.708679,206.503876 402.404236,205.726486 401.997284,204.231171 
	C401.038879,202.142380 400.080475,200.053589 399.013763,197.300400 
	C398.380157,196.189987 397.746552,195.079575 396.973297,193.307388 
	C396.257294,192.197281 395.541290,191.087173 394.787079,189.353821 
	C394.214783,188.561401 393.642487,187.768967 392.967590,186.259094 
	C391.932098,184.167435 390.896576,182.075790 389.877319,179.393402 
	C389.538025,178.923080 389.198730,178.452759 388.870239,177.342529 
	C388.280487,176.553223 387.690765,175.763931 386.975281,174.251022 
	C385.333344,171.454559 383.691406,168.658081 382.052124,165.201874 
	C381.649017,164.471603 381.245941,163.741318 380.820984,162.330704 
	C379.588135,160.537170 378.355286,158.743622 377.016449,156.259521 
	C376.359344,155.138428 375.702240,154.017334 375.000977,152.223221 
	C374.376282,151.131454 373.751556,150.039703 373.019684,148.240921 
	C372.016693,146.545349 371.013702,144.849762 369.363739,143.014343 
	C368.850830,142.684937 368.337891,142.355530 367.968781,141.280334 
	C367.927063,140.524719 367.885345,139.769104 367.954834,138.289047 
	C365.197632,132.957077 362.562042,127.557457 359.644897,122.314491 
	C357.300232,118.100426 354.614746,114.076012 351.975433,109.272316 
	C351.040619,107.491638 350.105774,105.710960 349.015289,103.355843 
	C348.705933,102.894890 348.396576,102.433937 347.879486,101.372353 
	C347.201202,100.572510 346.522888,99.772675 345.955017,98.199806 
	C344.190338,97.122231 342.478760,95.235756 340.651245,95.115761 
	C334.703461,94.725266 328.691315,95.298492 322.746277,94.887878 
	C317.888031,94.552330 315.430237,96.297737 314.818451,101.521629 
	C314.803680,101.840553 314.859436,102.146515 314.321289,102.341690 
	C312.924652,104.557701 311.528015,106.773712 309.825317,109.592186 
	C309.153320,110.707108 308.481323,111.822029 307.206238,113.283936 
	C304.789398,117.820610 302.372559,122.357285 299.327393,127.231819 
	C297.182739,131.475067 295.038055,135.718307 292.260712,140.235672 
	C291.142059,142.477203 290.023407,144.718735 288.279602,147.254089 
	C287.150299,149.486679 286.020966,151.719254 284.266907,154.282455 
	C283.133301,156.847015 281.999695,159.411575 280.257172,162.218918 
	C279.892151,163.150482 279.527100,164.082031 278.874786,165.654877 
	C277.868073,167.417358 276.861359,169.179855 275.262115,171.182129 
	C274.886688,172.118378 274.511292,173.054642 273.986694,174.415527 
	C273.986694,174.415527 273.957001,174.864655 273.454773,175.052475 
	C273.357910,175.358368 273.261078,175.664261 273.010590,176.711807 
M329.997467,227.073029 
	C328.923553,220.618149 326.821472,214.639954 321.994019,209.173416 
	C321.202393,207.817902 320.592834,206.307343 319.590973,205.130875 
	C309.510223,193.293167 295.444061,188.791794 281.200562,185.116562 
	C267.808777,181.661133 254.183823,179.091751 240.628067,176.294342 
	C225.160614,173.102417 209.638336,170.175705 194.173996,166.969208 
	C183.351852,164.725281 172.419373,162.958466 162.349091,157.849564 
	C154.064072,153.646393 151.679977,140.958908 158.450241,134.008591 
	C163.434647,128.891663 169.945831,127.166740 176.535980,127.119484 
	C212.492371,126.861595 248.451553,126.982460 284.409729,127.014801 
	C286.934174,127.017075 289.551117,127.869949 291.963898,127.434479 
	C297.557312,126.424942 297.404877,120.661934 300.112701,116.351540 
	C303.638245,110.846489 307.276031,105.406570 310.554474,99.758087 
	C310.989044,99.009399 309.595093,97.199432 308.603302,95.128654 
	C297.187317,95.418983 285.770355,95.972900 274.355560,95.932198 
	C260.435547,95.882568 246.518173,95.278618 232.597412,95.052132 
	C230.197403,95.013077 227.780060,95.979584 225.381302,95.933319 
	C215.017990,95.733444 204.659683,95.125343 194.297440,95.071037 
	C187.213654,95.033905 180.100311,95.395622 173.048111,96.075867 
	C166.294434,96.727325 159.410172,97.337532 152.921753,99.166527 
	C137.099136,103.626701 125.553596,113.419975 120.133705,129.227814 
	C117.860611,135.857590 116.762672,142.729233 117.825806,150.100998 
	C119.682030,162.971909 125.063858,173.341003 135.514648,181.131119 
	C148.903778,191.111465 164.850845,193.712723 180.573868,197.001068 
	C196.195892,200.268280 211.826309,203.495682 227.439774,206.803207 
	C236.884598,208.804001 246.280411,211.041260 255.741379,212.959534 
	C266.601532,215.161514 277.532684,217.229111 287.104950,223.133255 
	C289.564362,224.650177 291.956268,227.449371 292.829071,230.158859 
	C296.252502,240.786163 293.506348,250.559082 280.935608,254.563293 
	C277.121674,255.778152 272.711273,256.098755 270.504852,260.051422 
	C266.129456,267.889587 261.938049,275.832977 257.799744,283.799927 
	C256.033661,287.200012 257.020691,289.281738 261.139587,288.983307 
	C269.638214,288.367523 278.428986,288.801544 286.544678,286.680573 
	C295.541016,284.329437 304.998383,281.063843 312.338593,275.614899 
	C327.361877,264.462494 332.709351,248.292191 330.625488,229.656830 
	C330.625488,229.656830 330.536682,229.647018 330.973022,229.231812 
	C330.661469,228.781235 330.349945,228.330658 329.997467,227.073029 
M423.912415,68.371429 
	C423.368652,68.333832 422.824921,68.296242 422.119171,68.280991 
	C422.119171,68.280991 421.805389,68.187241 421.209839,67.763687 
	C417.175781,66.160477 413.141693,64.557266 408.772064,62.257458 
	C406.789459,61.628796 404.740326,61.156898 402.834229,60.347980 
	C373.726898,47.995392 343.311829,41.680717 311.759796,41.083767 
	C300.354828,40.867989 288.930695,41.663380 277.515289,41.996384 
	C277.015717,42.010956 276.511932,41.978474 276.016724,42.030613 
	C263.516022,43.346855 251.010773,44.622772 238.518555,46.015472 
	C232.376068,46.700272 226.269073,47.703857 220.126312,48.385620 
	C210.674545,49.434639 201.385544,53.112629 191.659714,50.037571 
	C188.656769,49.088116 185.507614,48.601013 182.002777,47.806389 
	C182.002777,50.391964 182.002777,52.502499 182.002777,54.334476 
	C171.886337,56.611950 162.170563,58.858852 152.427460,60.980335 
	C131.652634,65.503891 110.886147,70.070824 90.068466,74.389664 
	C82.626068,75.933670 74.980858,78.099594 67.542221,77.723976 
	C52.777336,76.978424 38.096333,74.620384 23.367002,73.057442 
	C21.612873,72.871307 19.773657,73.487053 16.910036,73.875366 
	C18.900221,76.559250 19.979502,78.350121 21.381371,79.836807 
	C24.492241,83.135895 27.867926,86.187195 30.944832,89.515900 
	C34.585522,93.454529 36.404301,97.612373 33.551445,103.151924 
	C30.936954,108.228622 29.249657,113.782829 27.153812,119.126633 
	C29.295963,119.208824 30.817831,118.838699 31.512762,117.873306 
	C34.803978,113.301155 37.628780,108.379906 41.074627,103.935722 
	C45.647717,98.037697 44.672707,92.657707 40.079655,87.006508 
	C42.434395,87.006508 44.519489,86.555313 46.321136,87.079086 
	C58.844906,90.720001 71.510231,88.110245 84.063141,87.842438 
	C99.661339,87.509651 115.222908,85.670677 130.822769,85.127060 
	C140.379715,84.794029 149.976669,85.770523 159.559601,85.971535 
	C167.173721,86.131248 174.818680,85.624367 182.404221,86.117172 
	C189.807144,86.598114 197.152100,87.971397 204.552948,88.956993 
	C204.398453,85.506569 197.295547,83.567528 180.515854,81.972786 
	C171.263229,81.093422 162.039627,79.912537 152.792236,78.972893 
	C143.699921,78.049004 134.594086,77.258278 125.494179,76.409126 
	C128.429398,74.861153 131.528580,74.386276 134.592758,73.744301 
	C143.564545,71.864662 152.489563,69.745125 161.493622,68.040230 
	C174.045197,65.663643 186.636963,63.488270 199.239243,61.393593 
	C210.747482,59.480766 222.258148,57.508125 233.832550,56.091309 
	C242.943649,54.976025 252.150787,54.628292 261.319916,54.008232 
	C276.569702,52.976967 291.815521,51.845192 307.079590,51.091427 
	C311.968964,50.849983 316.914825,52.002602 321.827789,51.942371 
	C337.444672,51.750908 352.929016,53.804279 367.576660,58.557644 
	C387.484161,65.017921 406.762268,73.422447 426.278259,81.074905 
	C427.739105,81.647728 428.943298,82.875008 430.266785,83.798050 
	C415.393036,85.497658 400.986481,86.630775 386.563446,86.908180 
	C367.075531,87.282997 347.574890,87.017143 328.079803,86.985588 
	C324.133240,86.979202 320.175598,86.946808 316.242676,86.658806 
	C305.143341,85.846024 294.056519,84.220474 282.960449,84.182808 
	C271.414093,84.143600 260.030334,83.725227 249.097076,79.907837 
	C239.653305,76.610497 230.475479,72.611389 222.794662,65.758156 
	C227.142456,63.840694 231.154587,62.071266 235.166718,60.301838 
	C232.921997,58.886871 231.015579,58.137680 229.272583,58.415138 
	C225.690735,58.985317 222.176712,60.035110 218.671875,61.019520 
	C215.612091,61.878929 212.449097,62.596935 209.607498,63.954643 
	C205.221634,66.050194 205.087738,68.235565 208.175354,71.729378 
	C214.036377,78.361412 222.064499,80.557426 230.145538,81.868317 
	C243.461014,84.028336 256.903320,85.433647 270.312225,86.983414 
	C285.190796,88.703041 300.091858,90.227928 315.718811,92.205055 
	C321.485168,92.082214 327.251556,91.959373 333.886047,91.960136 
	C341.978638,92.630951 350.071625,93.870682 358.163696,93.864708 
	C381.378998,93.847557 404.594757,93.375000 427.808685,92.983971 
	C441.540558,92.752663 455.268463,92.295898 468.999847,92.023201 
	C474.815948,91.907684 480.662842,91.651138 486.448669,92.085510 
	C495.681549,92.778671 505.067383,93.151123 514.038879,95.194496 
	C526.571899,98.049057 538.783264,102.316086 552.180054,106.289513 
	C547.624207,109.540970 549.723633,111.552826 551.390076,112.772148 
	C558.535095,118.000107 565.471497,123.736755 573.260071,127.800201 
	C581.375671,132.034256 590.382751,134.559479 599.695190,138.150467 
	C603.075256,139.878693 606.696716,141.264221 609.769592,143.428589 
	C613.042297,145.733780 613.499146,148.651428 609.995728,151.673660 
	C608.623169,152.857727 607.482422,154.772766 607.095032,156.542877 
	C606.213623,160.570862 605.863708,164.715195 605.257385,169.105209 
	C600.886841,166.770660 597.028687,164.773895 593.233032,162.664703 
	C589.309021,160.484222 585.487061,158.118225 581.543396,155.975235 
	C577.993164,154.045959 574.338379,152.308823 570.729736,150.486923 
	C570.438904,151.024200 570.148071,151.561478 569.857300,152.098740 
	C582.771912,163.085312 595.046326,174.990585 611.772156,180.943329 
	C592.427734,182.758270 573.333069,180.942245 554.528687,179.915375 
	C554.001465,171.023041 554.117981,162.548447 552.834229,154.291550 
	C551.568542,146.150757 548.885071,138.230392 546.886658,130.458374 
	C550.304138,129.308334 554.300293,127.963554 558.296448,126.618774 
	C558.146790,126.149300 557.997192,125.679825 557.847534,125.210350 
	C556.723755,125.139305 555.579773,125.179359 554.479492,124.979179 
	C547.392639,123.689819 540.367920,123.168503 534.988647,116.753136 
	C526.494629,106.623146 515.038086,101.179337 501.968201,98.923203 
	C482.729462,95.602188 465.712158,100.249489 451.924316,113.918663 
	C446.076355,119.716316 441.529694,127.086601 437.489044,134.352432 
	C434.950867,138.916458 434.451477,144.614288 433.037415,149.803467 
	C434.960236,149.231949 436.474854,148.252686 436.897888,146.925491 
	C440.930481,134.273331 448.480804,124.257607 459.083344,116.396194 
	C471.202881,107.409981 484.916748,103.843178 499.576080,106.419800 
	C515.875793,109.284752 528.620178,117.972588 537.226990,132.602661 
	C543.343079,142.999039 545.540344,154.308350 545.798706,165.952057 
	C545.936340,172.155579 544.447998,178.528137 542.822693,184.590927 
	C541.744995,188.611069 542.981384,189.152222 546.334167,189.023224 
	C556.413269,188.635452 566.495422,188.324097 576.577148,188.008224 
	C587.823975,187.655823 599.070190,187.265198 610.319519,187.018814 
	C617.238281,186.867264 620.189270,185.006088 623.073059,178.206848 
	C622.421204,177.671844 621.683533,176.988693 620.870911,176.411118 
	C610.022888,168.701187 609.602844,160.978699 619.346802,151.912292 
	C621.739990,149.685501 622.526123,146.724503 619.658508,144.198196 
	C614.882812,139.990875 609.923767,135.991623 604.783386,131.260437 
	C602.423218,129.572800 600.012695,127.950966 597.710632,126.187508 
	C569.643616,104.687454 537.721130,92.366432 503.020081,87.138672 
	C492.519379,85.556732 481.756500,85.764488 471.128693,84.955772 
	C465.801086,84.550377 460.307983,84.373161 455.252594,82.871338 
	C449.956421,81.297966 445.095001,78.261032 439.727203,75.188568 
	C437.983002,74.498940 436.235596,73.817245 434.495239,73.117989 
	C431.014099,71.719269 427.536804,70.310913 424.010040,68.983635 
	C424.010040,68.983635 424.090973,68.942558 423.912415,68.371429 
M251.558762,285.954254 
	C251.667450,285.645935 251.776138,285.337616 252.120605,284.456696 
	C252.696304,283.643188 253.271988,282.829651 254.123367,281.432739 
	C254.430267,280.667297 254.737167,279.901855 255.603058,278.838440 
	C255.693588,278.239563 255.784119,277.640686 255.993073,276.608398 
	C255.993073,276.608398 256.043243,276.161926 256.536041,275.954834 
	C256.660400,275.644897 256.784729,275.334930 257.022919,274.600769 
	C257.022919,274.600769 257.043427,274.162048 257.545135,273.951752 
	C257.664093,273.638672 257.783020,273.325623 258.024078,272.597229 
	C258.024078,272.597229 258.049408,272.165039 258.628540,271.856995 
	C259.135376,270.931061 259.642181,270.005157 260.065948,269.038422 
	C260.065948,269.038422 260.083954,269.129211 260.645874,268.857208 
	C261.113678,267.955658 261.581482,267.054108 262.644318,265.824249 
	C263.109955,264.592377 263.575592,263.360504 264.684448,261.823883 
	C266.566193,258.429016 268.447968,255.034164 270.871460,251.143997 
	C271.613220,249.776962 272.354980,248.409927 273.709961,246.770493 
	C274.486328,245.210983 275.262695,243.651474 276.696838,241.807693 
	C278.461365,238.235672 280.133423,234.614136 282.013245,231.103851 
	C284.512543,226.436737 283.870911,225.048141 277.263977,222.994858 
	C273.173889,221.955658 269.083801,220.916458 264.563751,219.218857 
	C262.848724,218.816635 261.039581,218.639816 259.436066,217.970444 
	C254.392853,215.865189 250.685242,217.320999 247.331940,222.159531 
	C246.277252,224.113541 245.222549,226.067551 243.882919,228.628342 
	C243.537018,229.398087 243.191101,230.167847 242.209106,231.235870 
	C240.784790,234.151016 239.360474,237.066147 237.292419,240.257462 
	C236.495941,242.162231 235.699463,244.067017 234.261490,246.218719 
	C232.800552,248.800430 231.339615,251.382156 229.266190,254.260117 
	C228.480103,255.829849 227.694016,257.399597 226.299606,259.323608 
	C225.822250,260.869690 225.344894,262.415741 224.254517,264.350494 
	C222.864655,267.897644 221.474792,271.444794 219.973557,275.395050 
	C219.973557,275.395050 219.949921,275.812622 219.477081,276.052277 
	C219.347717,276.359802 219.218338,276.667297 218.963379,277.383911 
	C218.963379,277.383911 218.950775,277.811676 218.395020,278.125671 
	C218.222183,278.722809 218.049347,279.319946 217.981598,279.942657 
	C217.981598,279.942657 217.906006,279.865326 217.201218,280.240692 
	C216.676437,282.314850 216.151657,284.388977 215.239792,287.993042 
	C226.597610,287.993042 236.771027,288.065857 246.940872,287.908691 
	C248.344635,287.886993 249.730789,286.726440 251.046417,286.044891 
	C251.046417,286.044891 251.059097,286.136292 251.558762,285.954254 
M122.565414,287.997528 
	C134.217484,287.997009 145.869568,287.997467 157.521637,287.995728 
	C168.671646,287.994080 179.821655,287.987671 190.971664,287.988770 
	C194.299301,287.989075 197.857559,287.263763 200.896210,288.205902 
	C204.693253,289.383240 206.749985,287.833069 208.233902,285.177368 
	C213.312698,276.087952 218.140472,266.858276 223.421417,257.015869 
	C220.727875,256.626923 218.556458,256.044525 216.383865,256.040131 
	C186.594879,255.980011 156.805710,255.999573 127.016602,255.999664 
	C125.518822,255.999664 124.021049,256.002808 122.523270,256.000549 
	C119.425041,255.995880 117.829918,257.088989 117.934196,260.639374 
	C118.168610,268.620605 118.152496,276.617523 117.931618,284.599548 
	C117.848679,287.596710 118.944878,288.417755 122.565414,287.997528 
M523.529541,134.020248 
	C532.126770,144.444168 535.049133,156.856110 535.643555,170.083527 
	C541.008484,156.794067 540.451294,136.277145 520.958252,120.778770 
	C502.574890,106.162659 482.842468,105.960251 461.038818,120.677795 
	C451.370148,127.204208 441.333069,148.121048 445.419189,153.046463 
	C450.380005,146.141678 455.107300,138.656540 460.732971,131.921814 
	C472.163544,118.237839 494.582672,115.875801 510.064941,124.113029 
	C514.724121,126.591911 518.709229,130.337616 523.529541,134.020248 
z"/>
<path fill="#FEFEFE" opacity="1.000000" stroke="none" 
	d="
M299.826111,117.007950 
	C297.404877,120.661934 297.557312,126.424942 291.963898,127.434479 
	C289.551117,127.869949 286.934174,127.017075 284.409729,127.014801 
	C248.451553,126.982460 212.492371,126.861595 176.535980,127.119484 
	C169.945831,127.166740 163.434647,128.891663 158.450241,134.008591 
	C151.679977,140.958908 154.064072,153.646393 162.349091,157.849564 
	C172.419373,162.958466 183.351852,164.725281 194.173996,166.969208 
	C209.638336,170.175705 225.160614,173.102417 240.628067,176.294342 
	C254.183823,179.091751 267.808777,181.661133 281.200562,185.116562 
	C295.444061,188.791794 309.510223,193.293167 319.590973,205.130875 
	C320.592834,206.307343 321.202393,207.817902 322.002930,209.952286 
	C322.675110,213.591431 323.113861,216.528412 324.058350,219.292587 
	C325.242737,222.758682 326.779846,226.112366 328.346680,229.428589 
	C328.527283,229.810867 329.870483,229.643829 330.674652,229.731476 
	C332.709351,248.292191 327.361877,264.462494 312.338593,275.614899 
	C304.998383,281.063843 295.541016,284.329437 286.544678,286.680573 
	C278.428986,288.801544 269.638214,288.367523 261.139587,288.983307 
	C257.020691,289.281738 256.033661,287.200012 257.799744,283.799927 
	C261.938049,275.832977 266.129456,267.889587 270.504852,260.051422 
	C272.711273,256.098755 277.121674,255.778152 280.935608,254.563293 
	C293.506348,250.559082 296.252502,240.786163 292.829071,230.158859 
	C291.956268,227.449371 289.564362,224.650177 287.104950,223.133255 
	C277.532684,217.229111 266.601532,215.161514 255.741379,212.959534 
	C246.280411,211.041260 236.884598,208.804001 227.439774,206.803207 
	C211.826309,203.495682 196.195892,200.268280 180.573868,197.001068 
	C164.850845,193.712723 148.903778,191.111465 135.514648,181.131119 
	C125.063858,173.341003 119.682030,162.971909 117.825806,150.100998 
	C116.762672,142.729233 117.860611,135.857590 120.133705,129.227814 
	C125.553596,113.419975 137.099136,103.626701 152.921753,99.166527 
	C159.410172,97.337532 166.294434,96.727325 173.048111,96.075867 
	C180.100311,95.395622 187.213654,95.033905 194.297440,95.071037 
	C204.659683,95.125343 215.017990,95.733444 225.381302,95.933319 
	C227.780060,95.979584 230.197403,95.013077 232.597412,95.052132 
	C246.518173,95.278618 260.435547,95.882568 274.355560,95.932198 
	C285.770355,95.972900 297.187317,95.418983 308.780975,95.865891 
	C305.543060,101.396553 301.940460,106.072365 298.811768,111.046265 
	C297.694702,112.822159 295.082489,115.808426 299.826111,117.007950 
z"/>
<path fill="#FCFCFC" opacity="1.000000" stroke="none" 
	d="
M314.983124,91.837608 
	C300.091858,90.227928 285.190796,88.703041 270.312225,86.983414 
	C256.903320,85.433647 243.461014,84.028336 230.145538,81.868317 
	C222.064499,80.557426 214.036377,78.361412 208.175354,71.729378 
	C205.087738,68.235565 205.221634,66.050194 209.607498,63.954643 
	C212.449097,62.596935 215.612091,61.878929 218.671875,61.019520 
	C222.176712,60.035110 225.690735,58.985317 229.272583,58.415138 
	C231.015579,58.137680 232.921997,58.886871 235.166718,60.301838 
	C231.154587,62.071266 227.142456,63.840694 222.794662,65.758156 
	C230.475479,72.611389 239.653305,76.610497 249.097076,79.907837 
	C260.030334,83.725227 271.414093,84.143600 282.960449,84.182808 
	C294.056519,84.220474 305.143341,85.846024 316.242676,86.658806 
	C320.175598,86.946808 324.133240,86.979202 328.079803,86.985588 
	C347.574890,87.017143 367.075531,87.282997 386.563446,86.908180 
	C400.986481,86.630775 415.393036,85.497658 430.266785,83.798050 
	C428.943298,82.875008 427.739105,81.647728 426.278259,81.074905 
	C406.762268,73.422447 387.484161,65.017921 367.576660,58.557644 
	C352.929016,53.804279 337.444672,51.750908 321.827789,51.942371 
	C316.914825,52.002602 311.968964,50.849983 307.079590,51.091427 
	C291.815521,51.845192 276.569702,52.976967 261.319916,54.008232 
	C252.150787,54.628292 242.943649,54.976025 233.832550,56.091309 
	C222.258148,57.508125 210.747482,59.480766 199.239243,61.393593 
	C186.636963,63.488270 174.045197,65.663643 161.493622,68.040230 
	C152.489563,69.745125 143.564545,71.864662 134.592758,73.744301 
	C131.528580,74.386276 128.429398,74.861153 125.494179,76.409126 
	C134.594086,77.258278 143.699921,78.049004 152.792236,78.972893 
	C162.039627,79.912537 171.263229,81.093422 180.515854,81.972786 
	C197.295547,83.567528 204.398453,85.506569 204.552948,88.956993 
	C197.152100,87.971397 189.807144,86.598114 182.404221,86.117172 
	C174.818680,85.624367 167.173721,86.131248 159.559601,85.971535 
	C149.976669,85.770523 140.379715,84.794029 130.822769,85.127060 
	C115.222908,85.670677 99.661339,87.509651 84.063141,87.842438 
	C71.510231,88.110245 58.844906,90.720001 46.321136,87.079086 
	C44.519489,86.555313 42.434395,87.006508 40.079655,87.006508 
	C44.672707,92.657707 45.647717,98.037697 41.074627,103.935722 
	C37.628780,108.379906 34.803978,113.301155 31.512762,117.873306 
	C30.817831,118.838699 29.295963,119.208824 27.153812,119.126633 
	C29.249657,113.782829 30.936954,108.228622 33.551445,103.151924 
	C36.404301,97.612373 34.585522,93.454529 30.944832,89.515900 
	C27.867926,86.187195 24.492241,83.135895 21.381371,79.836807 
	C19.979502,78.350121 18.900221,76.559250 16.910036,73.875366 
	C19.773657,73.487053 21.612873,72.871307 23.367002,73.057442 
	C38.096333,74.620384 52.777336,76.978424 67.542221,77.723976 
	C74.980858,78.099594 82.626068,75.933670 90.068466,74.389664 
	C110.886147,70.070824 131.652634,65.503891 152.427460,60.980335 
	C162.170563,58.858852 171.886337,56.611950 182.002777,54.334476 
	C182.002777,52.502499 182.002777,50.391964 182.002777,47.806389 
	C185.507614,48.601013 188.656769,49.088116 191.659714,50.037571 
	C201.385544,53.112629 210.674545,49.434639 220.126312,48.385620 
	C226.269073,47.703857 232.376068,46.700272 238.518555,46.015472 
	C251.010773,44.622772 263.516022,43.346855 276.016724,42.030613 
	C276.511932,41.978474 277.015717,42.010956 277.515289,41.996384 
	C288.930695,41.663380 300.354828,40.867989 311.759796,41.083767 
	C343.311829,41.680717 373.726898,47.995392 402.834229,60.347980 
	C404.740326,61.156898 406.789459,61.628796 408.682312,62.801159 
	C410.314514,65.962822 418.275330,68.880386 421.805389,68.187241 
	C421.805389,68.187241 422.119171,68.280991 422.628601,68.510086 
	C423.455688,68.806976 423.773315,68.874771 424.090973,68.942558 
	C424.090973,68.942558 424.010040,68.983635 424.062103,69.295601 
	C425.176239,70.603928 426.079315,71.927048 427.330048,72.535622 
	C431.141113,74.389992 432.998474,76.309097 427.597198,79.478096 
	C429.536499,80.536415 430.894989,81.277771 430.993164,81.331345 
	C434.040680,80.077141 435.906799,79.514320 437.544464,78.559616 
	C438.557190,77.969238 439.222382,76.782700 440.043579,75.863785 
	C445.095001,78.261032 449.956421,81.297966 455.252594,82.871338 
	C460.307983,84.373161 465.801086,84.550377 471.128693,84.955772 
	C481.756500,85.764488 492.519379,85.556732 503.020081,87.138672 
	C537.721130,92.366432 569.643616,104.687454 597.710632,126.187508 
	C600.012695,127.950966 602.423218,129.572800 604.738770,131.916138 
	C603.422058,135.002777 597.743835,132.663971 599.000061,137.831818 
	C590.382751,134.559479 581.375671,132.034256 573.260071,127.800201 
	C565.471497,123.736755 558.535095,118.000107 551.390076,112.772148 
	C549.723633,111.552826 547.624207,109.540970 552.180054,106.289513 
	C538.783264,102.316086 526.571899,98.049057 514.038879,95.194496 
	C505.067383,93.151123 495.681549,92.778671 486.448669,92.085510 
	C480.662842,91.651138 474.815948,91.907684 468.999847,92.023201 
	C455.268463,92.295898 441.540558,92.752663 427.808685,92.983971 
	C404.594757,93.375000 381.378998,93.847557 358.163696,93.864708 
	C350.071625,93.870682 341.978638,92.630951 333.345337,91.523689 
	C328.445496,90.592239 324.091949,90.037315 319.724670,89.629784 
	C317.799866,89.450172 315.310120,88.430336 314.983124,91.837608 
z"/>
<path fill="#FEFEFE" opacity="1.000000" stroke="none" 
	d="
M122.087181,287.997437 
	C118.944878,288.417755 117.848679,287.596710 117.931618,284.599548 
	C118.152496,276.617523 118.168610,268.620605 117.934196,260.639374 
	C117.829918,257.088989 119.425041,255.995880 122.523270,256.000549 
	C124.021049,256.002808 125.518822,255.999664 127.016602,255.999664 
	C156.805710,255.999573 186.594879,255.980011 216.383865,256.040131 
	C218.556458,256.044525 220.727875,256.626923 223.421417,257.015869 
	C218.140472,266.858276 213.312698,276.087952 208.233902,285.177368 
	C206.749985,287.833069 204.693253,289.383240 200.896210,288.205902 
	C197.857559,287.263763 194.299301,287.989075 190.971664,287.988770 
	C179.821655,287.987671 168.671646,287.994080 157.521637,287.995728 
	C145.869568,287.997467 134.217484,287.997009 122.087181,287.997437 
z"/>
<path fill="#FCFCFB" opacity="1.000000" stroke="none" 
	d="
M599.347656,137.991150 
	C597.743835,132.663971 603.422058,135.002777 604.868042,132.238281 
	C609.923767,135.991623 614.882812,139.990875 619.658508,144.198196 
	C622.526123,146.724503 621.739990,149.685501 619.346802,151.912292 
	C609.602844,160.978699 610.022888,168.701187 620.870911,176.411118 
	C621.683533,176.988693 622.421204,177.671844 623.073059,178.206848 
	C620.189270,185.006088 617.238281,186.867264 610.319519,187.018814 
	C599.070190,187.265198 587.823975,187.655823 576.577148,188.008224 
	C566.495422,188.324097 556.413269,188.635452 546.334167,189.023224 
	C542.981384,189.152222 541.744995,188.611069 542.822693,184.590927 
	C544.447998,178.528137 545.936340,172.155579 545.798706,165.952057 
	C545.540344,154.308350 543.343079,142.999039 537.226990,132.602661 
	C528.620178,117.972588 515.875793,109.284752 499.576080,106.419800 
	C484.916748,103.843178 471.202881,107.409981 459.083344,116.396194 
	C448.480804,124.257607 440.930481,134.273331 436.897888,146.925491 
	C436.474854,148.252686 434.960236,149.231949 433.037415,149.803467 
	C434.451477,144.614288 434.950867,138.916458 437.489044,134.352432 
	C441.529694,127.086601 446.076355,119.716316 451.924316,113.918663 
	C465.712158,100.249489 482.729462,95.602188 501.968201,98.923203 
	C515.038086,101.179337 526.494629,106.623146 534.988647,116.753136 
	C540.367920,123.168503 547.392639,123.689819 554.479492,124.979179 
	C555.579773,125.179359 556.723755,125.139305 557.847534,125.210350 
	C557.997192,125.679825 558.146790,126.149300 558.296448,126.618774 
	C554.300293,127.963554 550.304138,129.308334 546.886658,130.458374 
	C548.885071,138.230392 551.568542,146.150757 552.834229,154.291550 
	C554.117981,162.548447 554.001465,171.023041 554.528687,179.915375 
	C573.333069,180.942245 592.427734,182.758270 611.772156,180.943329 
	C595.046326,174.990585 582.771912,163.085312 569.857300,152.098740 
	C570.148071,151.561478 570.438904,151.024200 570.729736,150.486923 
	C574.338379,152.308823 577.993164,154.045959 581.543396,155.975235 
	C585.487061,158.118225 589.309021,160.484222 593.233032,162.664703 
	C597.028687,164.773895 600.886841,166.770660 605.257385,169.105209 
	C605.863708,164.715195 606.213623,160.570862 607.095032,156.542877 
	C607.482422,154.772766 608.623169,152.857727 609.995728,151.673660 
	C613.499146,148.651428 613.042297,145.733780 609.769592,143.428589 
	C606.696716,141.264221 603.075256,139.878693 599.347656,137.991150 
z"/>
<path fill="#7B7F80" opacity="1.000000" stroke="none" 
	d="
M299.955688,126.893951 
	C302.372559,122.357285 304.789398,117.820610 307.845215,113.161789 
	C310.143982,113.268448 311.821228,113.779884 313.460541,113.678452 
	C321.744995,113.165886 330.028595,112.592705 338.294098,111.838890 
	C342.908081,111.418091 347.486206,110.604202 352.080505,109.967438 
	C354.614746,114.076012 357.300232,118.100426 359.644897,122.314491 
	C362.562042,127.557457 365.197632,132.957077 367.535889,138.636581 
	C365.078735,137.712448 363.100922,135.469360 360.991791,135.338257 
	C352.138855,134.787918 343.246918,134.768066 334.368774,134.746017 
	C323.686279,134.719498 312.945984,136.119247 303.179169,133.864929 
	C301.850098,130.990723 300.902893,128.942337 299.955688,126.893951 
z"/>
<path fill="#FCFCFB" opacity="1.000000" stroke="none" 
	d="
M523.266357,133.761627 
	C518.709229,130.337616 514.724121,126.591911 510.064941,124.113029 
	C494.582672,115.875801 472.163544,118.237839 460.732971,131.921814 
	C455.107300,138.656540 450.380005,146.141678 445.419189,153.046463 
	C441.333069,148.121048 451.370148,127.204208 461.038818,120.677795 
	C482.842468,105.960251 502.574890,106.162659 520.958252,120.778770 
	C540.451294,136.277145 541.008484,156.794067 535.643555,170.083527 
	C535.049133,156.856110 532.126770,144.444168 523.266357,133.761627 
z"/>
<path fill="#D7D8D4" opacity="1.000000" stroke="none" 
	d="
M382.971436,241.088913 
	C381.265045,241.051559 379.558685,241.014206 377.363342,240.524109 
	C376.190002,239.428207 375.519989,238.244644 374.818939,238.225952 
	C368.231689,238.050308 361.637024,237.990189 355.051300,238.160568 
	C354.341156,238.178955 353.674255,239.869263 352.987274,240.784012 
	C349.678619,240.863327 346.368011,241.055923 343.061768,240.998077 
	C336.446320,240.882339 334.987762,239.166229 335.493866,231.505783 
	C338.246887,231.420609 340.531708,231.985275 342.810150,231.960724 
	C367.206116,231.697693 391.601105,231.341522 415.993866,231.406479 
	C416.497894,233.986588 417.004395,236.171112 417.660309,239.000153 
	C415.802032,239.000153 414.207855,238.999969 412.613708,239.000183 
	C404.421539,239.001312 396.226379,238.886642 388.039642,239.098297 
	C386.334229,239.142395 384.660034,240.393860 382.971436,241.088913 
z"/>
<path fill="#B7B9B9" opacity="1.000000" stroke="none" 
	d="
M415.996338,231.010895 
	C391.601105,231.341522 367.206116,231.697693 342.810150,231.960724 
	C340.531708,231.985275 338.246887,231.420609 335.559509,231.078888 
	C334.804169,229.612854 334.454407,228.197464 334.455658,226.361588 
	C336.713776,225.955246 338.623840,226.045471 340.527344,225.970047 
	C347.886719,225.678436 355.241089,225.220596 362.602600,225.032166 
	C379.442841,224.601044 396.286224,224.291992 413.128326,223.933380 
	C414.094055,225.674561 415.059784,227.415741 416.020416,229.796494 
	C416.009003,230.627670 416.002655,230.819290 415.996338,231.010895 
z"/>
<path fill="#989C9D" opacity="1.000000" stroke="none" 
	d="
M413.082947,223.573944 
	C396.286224,224.291992 379.442841,224.601044 362.602600,225.032166 
	C355.241089,225.220596 347.886719,225.678436 340.527344,225.970047 
	C338.623840,226.045471 336.713776,225.955246 334.503113,225.988953 
	C333.881653,225.247498 333.563751,224.458191 333.544403,223.273438 
	C336.314575,221.588654 338.756592,219.255615 341.262756,219.184494 
	C354.483063,218.809311 367.719940,219.060028 380.950104,218.962341 
	C384.229492,218.938141 387.593964,217.811157 390.763947,218.268341 
	C397.050873,219.175064 402.893829,219.067886 408.057983,214.849869 
	C409.717865,217.638077 411.377747,220.426285 413.082947,223.573944 
z"/>
<path fill="#777C7C" opacity="1.000000" stroke="none" 
	d="
M331.046112,218.012451 
	C331.014374,216.285538 330.982605,214.558640 331.178467,212.327393 
	C331.469055,211.722290 331.608551,211.567032 331.582153,211.529922 
	C331.451477,211.346451 331.276947,211.194214 331.117859,211.030960 
	C333.824768,206.509933 338.300262,208.494125 342.846497,208.317627 
	C351.716583,208.725327 359.853394,208.856949 368.456970,208.992920 
	C373.193787,209.134277 377.473694,209.520157 381.731781,209.352417 
	C388.857941,209.071686 395.970154,208.437683 403.088257,207.952362 
	C403.723938,208.723969 404.359619,209.495575 404.948608,210.956146 
	C401.993958,212.761871 399.122894,214.722305 396.171814,214.851303 
	C382.396698,215.453400 368.598694,215.518188 354.810730,215.851196 
	C351.666077,215.927155 348.031860,217.433517 345.489441,216.313904 
	C339.864563,213.836838 336.048279,216.717484 331.820648,219.127151 
	C331.820648,219.127151 331.898621,219.071457 331.857574,218.863297 
	C331.559723,218.440903 331.302917,218.226685 331.046112,218.012451 
z"/>
<path fill="#737777" opacity="1.000000" stroke="none" 
	d="
M435.087921,267.960602 
	C437.062195,271.387299 439.036499,274.813995 440.693604,278.565369 
	C438.415375,277.330414 436.570251,276.035095 435.092010,279.515564 
	C434.797729,280.208435 433.562988,280.889496 432.744690,280.910614 
	C426.405243,281.074249 420.059021,281.201172 413.720276,281.073029 
	C410.436707,281.006683 407.164124,280.398895 403.886597,280.035706 
	C401.588745,275.947113 399.290894,271.858551 397.259186,267.375610 
	C398.697632,267.507690 400.443542,267.715790 400.943085,268.615723 
	C403.124237,272.545013 405.989807,272.470886 409.763000,271.231293 
	C412.111359,270.459808 414.820587,270.690735 417.370728,270.648804 
	C423.403992,270.549591 429.686310,272.198486 435.087921,267.960602 
z"/>
<path fill="#6F7373" opacity="1.000000" stroke="none" 
	d="
M257.043427,274.162048 
	C257.043427,274.162048 257.022919,274.600769 256.751282,274.940155 
	C256.233276,275.523743 256.087799,275.817871 256.043243,276.161926 
	C256.043243,276.161926 255.993073,276.608398 255.701569,277.012390 
	C255.288071,277.989685 255.166061,278.563049 255.044067,279.136383 
	C254.737167,279.901855 254.430267,280.667297 253.654800,281.679901 
	C252.127823,281.611206 251.069427,281.295349 249.776337,280.715149 
	C248.027100,280.630859 246.512558,280.810913 244.598892,280.991821 
	C243.135422,280.993500 242.071091,280.994293 240.914047,280.601257 
	C236.603073,279.656464 232.396744,278.873871 228.161316,278.655304 
	C226.135727,278.550751 224.054962,279.515778 221.629333,279.996155 
	C220.519745,279.994537 219.780029,279.993042 219.027832,279.628723 
	C218.993820,278.781128 218.972290,278.296417 218.950775,277.811676 
	C218.950775,277.811676 218.963379,277.383911 219.241791,277.047913 
	C219.663452,276.412140 219.806686,276.112396 219.949921,275.812622 
	C219.949921,275.812622 219.973557,275.395050 220.389786,275.192932 
	C221.797760,274.249054 223.215881,273.718384 223.706055,272.728302 
	C225.631378,268.839233 229.226486,268.143188 232.797958,268.085114 
	C241.174072,267.948822 249.938721,266.376831 256.986694,273.292236 
	C257.015137,273.775665 257.029297,273.968842 257.043427,274.162048 
z"/>
<path fill="#858A8A" opacity="1.000000" stroke="none" 
	d="
M299.641541,127.062881 
	C300.902893,128.942337 301.850098,130.990723 303.179169,133.864929 
	C312.945984,136.119247 323.686279,134.719498 334.368774,134.746017 
	C343.246918,134.768066 352.138855,134.787918 360.991791,135.338257 
	C363.100922,135.469360 365.078735,137.712448 367.480286,138.998810 
	C367.885345,139.769104 367.927063,140.524719 367.481628,141.646881 
	C365.329468,142.009979 363.664429,142.006531 361.772766,141.708923 
	C357.485657,140.277283 353.400299,138.121277 349.369995,138.219742 
	C341.589539,138.409821 333.858032,140.102722 326.070099,140.707382 
	C322.360809,140.995346 318.556030,140.327316 314.816895,139.897522 
	C307.499023,139.056366 300.188110,133.341949 292.893402,139.961563 
	C295.038055,135.718307 297.182739,131.475067 299.641541,127.062881 
z"/>
<path fill="#666B6C" opacity="1.000000" stroke="none" 
	d="
M367.990234,208.988586 
	C359.853394,208.856949 351.716583,208.725327 343.290009,208.297577 
	C347.491516,207.683868 351.980133,207.319595 356.475098,207.069122 
	C358.607666,206.950287 360.752380,207.048706 363.958954,207.048706 
	C362.464386,203.933243 361.225342,201.350388 360.391907,198.388428 
	C373.572388,197.994492 386.347229,197.979645 399.122070,197.964813 
	C400.080475,200.053589 401.038879,202.142380 401.661194,204.759949 
	C392.830261,205.336411 384.322327,205.682587 375.845856,205.310532 
	C371.354431,205.113388 368.102966,206.034409 367.990234,208.988586 
z"/>
<path fill="#ECEEEA" opacity="1.000000" stroke="none" 
	d="
M349.959900,179.114944 
	C348.054169,175.335388 346.148438,171.555832 344.359253,167.123550 
	C352.472931,166.646240 360.470093,166.823776 368.467316,166.995911 
	C371.261047,167.056046 374.400146,166.320282 376.758759,167.360306 
	C379.505646,168.571533 380.566376,167.299255 382.049469,165.861603 
	C383.691406,168.658081 385.333344,171.454559 386.675232,174.579071 
	C383.326813,174.947174 380.278473,175.016769 377.230072,175.021469 
	C369.757996,175.032974 362.274811,174.796692 354.822296,175.175537 
	C353.153015,175.260376 351.591125,177.457535 349.898254,178.786880 
	C349.816742,178.891541 349.959900,179.114944 349.959900,179.114944 
z"/>
<path fill="#7B7F80" opacity="1.000000" stroke="none" 
	d="
M403.948303,280.397888 
	C407.164124,280.398895 410.436707,281.006683 413.720276,281.073029 
	C420.059021,281.201172 426.405243,281.074249 432.744690,280.910614 
	C433.562988,280.889496 434.797729,280.208435 435.092010,279.515564 
	C436.570251,276.035095 438.415375,277.330414 440.729828,278.930817 
	C442.634979,281.621674 444.186737,284.271759 446.355164,287.974976 
	C433.271454,287.974976 421.910919,288.127411 410.558228,287.895691 
	C406.350891,287.809784 405.406189,283.878265 403.948303,280.397888 
z"/>
<path fill="#858A8A" opacity="1.000000" stroke="none" 
	d="
M331.881714,219.473419 
	C336.048279,216.717484 339.864563,213.836838 345.489441,216.313904 
	C348.031860,217.433517 351.666077,215.927155 354.810730,215.851196 
	C368.598694,215.518188 382.396698,215.453400 396.171814,214.851303 
	C399.122894,214.722305 401.993958,212.761871 404.965454,211.274643 
	C406.017609,212.001892 407.006226,213.099609 408.026398,214.523590 
	C402.893829,219.067886 397.050873,219.175064 390.763947,218.268341 
	C387.593964,217.811157 384.229492,218.938141 380.950104,218.962341 
	C367.719940,219.060028 354.483063,218.809311 341.262756,219.184494 
	C338.756592,219.255615 336.314575,221.588654 333.502960,222.948700 
	C332.756226,221.952820 332.349518,220.886261 331.881714,219.473419 
z"/>
<path fill="#909393" opacity="1.000000" stroke="none" 
	d="
M292.577057,140.098618 
	C300.188110,133.341949 307.499023,139.056366 314.816895,139.897522 
	C318.556030,140.327316 322.360809,140.995346 326.070099,140.707382 
	C333.858032,140.102722 341.589539,138.409821 349.369995,138.219742 
	C353.400299,138.121277 357.485657,140.277283 361.480957,142.005402 
	C356.652100,142.462891 351.886597,142.184174 347.125305,142.243195 
	C343.410828,142.289246 339.701538,142.755096 335.699951,142.908325 
	C334.242554,142.865616 333.075226,142.949005 331.907867,143.032379 
	C331.133118,143.944366 330.358398,144.856354 329.118988,145.573608 
	C327.816071,144.930008 327.004578,144.154343 326.135406,144.083145 
	C318.060516,143.421753 309.962463,142.362503 301.900391,142.567917 
	C298.779968,142.647415 294.081268,139.643936 291.861877,145.307434 
	C290.774780,146.052338 289.839783,146.506317 288.904785,146.960297 
	C290.023407,144.718735 291.142059,142.477203 292.577057,140.098618 
z"/>
<path fill="#C1C3C1" opacity="1.000000" stroke="none" 
	d="
M242.845184,230.937592 
	C243.191101,230.167847 243.537018,229.398087 244.379593,228.311066 
	C245.920639,227.569275 246.958832,226.794235 248.010361,226.775696 
	C256.394379,226.627930 264.782104,226.526566 273.165924,226.631271 
	C275.862579,226.664948 278.742249,227.630966 278.037811,223.167221 
	C283.870911,225.048141 284.512543,226.436737 282.013245,231.103851 
	C280.133423,234.614136 278.461365,238.235672 276.209167,241.691772 
	C275.161072,241.391281 274.600677,241.206696 274.180511,240.708282 
	C275.481964,238.344116 276.643158,236.293808 277.804321,234.243484 
	C275.277161,233.494812 272.767212,232.177734 270.219757,232.100739 
	C261.487061,231.836761 252.741257,232.007675 243.869736,231.774506 
	C243.441086,231.336685 243.143127,231.137146 242.845184,230.937592 
z"/>
<path fill="#858A8A" opacity="1.000000" stroke="none" 
	d="
M352.027954,109.619873 
	C347.486206,110.604202 342.908081,111.418091 338.294098,111.838890 
	C330.028595,112.592705 321.744995,113.165886 313.460541,113.678452 
	C311.821228,113.779884 310.143982,113.268448 308.146790,112.988297 
	C308.481323,111.822029 309.153320,110.707108 310.368164,109.288513 
	C319.230164,108.322479 327.575195,107.880959 335.858063,106.909409 
	C340.350372,106.382492 344.736786,104.952766 349.170959,103.930283 
	C350.105774,105.710960 351.040619,107.491638 352.027954,109.619873 
z"/>
<path fill="#A4A6A7" opacity="1.000000" stroke="none" 
	d="
M331.956482,143.389114 
	C333.075226,142.949005 334.242554,142.865616 335.769592,143.275513 
	C338.334503,144.504593 340.551819,145.900070 342.742950,145.860123 
	C351.481110,145.700851 360.212189,145.112991 368.940460,144.592850 
	C369.324402,144.569977 369.655151,143.654099 370.010681,143.154175 
	C371.013702,144.849762 372.016693,146.545349 372.710114,148.580673 
	C371.606781,148.746475 370.323730,148.175064 370.093292,148.458725 
	C367.059357,152.193573 362.903900,150.907959 359.127167,150.969650 
	C351.456696,151.094955 343.782837,151.011765 336.110352,151.014511 
	C334.741913,148.591629 333.373505,146.168732 331.956482,143.389114 
z"/>
<path fill="#7B7F80" opacity="1.000000" stroke="none" 
	d="
M435.043610,267.595306 
	C429.686310,272.198486 423.403992,270.549591 417.370728,270.648804 
	C414.820587,270.690735 412.111359,270.459808 409.763000,271.231293 
	C405.989807,272.470886 403.124237,272.545013 400.943085,268.615723 
	C400.443542,267.715790 398.697632,267.507690 397.200226,267.013916 
	C396.247223,266.258972 395.619324,265.471344 395.204834,264.214661 
	C397.326599,264.162659 399.226318,264.884796 401.144989,264.939240 
	C406.786163,265.099213 412.535339,265.647125 418.050537,264.797974 
	C422.972809,264.040100 428.664642,266.658417 432.836548,261.988800 
	C433.557465,263.735870 434.278381,265.482941 435.043610,267.595306 
z"/>
<path fill="#858A8A" opacity="1.000000" stroke="none" 
	d="
M432.783875,261.660522 
	C428.664642,266.658417 422.972809,264.040100 418.050537,264.797974 
	C412.535339,265.647125 406.786163,265.099213 401.144989,264.939240 
	C399.226318,264.884796 397.326599,264.162659 395.161377,263.897400 
	C394.093903,262.656982 393.283264,261.264832 392.875458,259.486938 
	C404.774597,259.535400 416.270081,259.999756 427.769318,260.334442 
	C428.519806,260.356293 429.299225,259.383942 430.065186,258.874054 
	C430.953857,259.693451 431.842529,260.512848 432.783875,261.660522 
z"/>
<path fill="#B7B9B9" opacity="1.000000" stroke="none" 
	d="
M274.040253,241.022125 
	C274.600677,241.206696 275.161072,241.391281 275.880280,241.833893 
	C275.262695,243.651474 274.486328,245.210983 273.020691,246.894745 
	C269.776886,247.798737 267.215118,249.255630 264.669312,249.228195 
	C257.705750,249.153137 250.752090,248.207184 243.787918,248.117264 
	C240.867828,248.079559 237.931076,249.330994 235.031616,249.668274 
	C235.008545,248.217377 234.955765,247.094589 234.902985,245.971786 
	C235.699463,244.067017 236.495941,242.162231 237.936890,240.157227 
	C238.712311,241.495071 238.843277,242.933151 238.941925,244.016525 
	C240.749191,243.706787 242.747528,243.055710 244.738892,243.076385 
	C253.382629,243.166107 262.024109,243.519867 270.667267,243.550873 
	C271.449463,243.553665 272.237457,241.936615 273.277008,241.056763 
	C273.700897,241.035187 273.870575,241.028656 274.040253,241.022125 
z"/>
<path fill="#E6E7E4" opacity="1.000000" stroke="none" 
	d="
M316.097900,169.029907 
	C315.313690,170.612335 314.529480,172.194763 313.097565,173.939240 
	C310.808685,174.622284 309.193451,175.474716 307.521729,175.605499 
	C301.158600,176.103348 294.779327,176.429337 288.400116,176.641464 
	C287.616913,176.667511 286.797943,175.618820 286.225769,174.754395 
	C292.631226,173.969376 298.811798,173.557281 304.978943,172.997574 
	C307.424896,172.775589 309.841095,172.225967 312.270874,171.825531 
	C312.215271,171.087433 312.159668,170.349335 312.104034,169.611237 
	C307.956146,169.407410 303.791229,168.864807 299.664001,169.072128 
	C291.716278,169.471359 283.789917,170.294815 275.854675,170.942352 
	C276.861359,169.179855 277.868073,167.417358 279.405701,165.322113 
	C282.017609,164.863235 284.118561,164.488953 286.175964,164.654984 
	C294.114258,165.295578 302.049164,166.698257 309.962799,166.556641 
	C312.971069,166.502808 314.455872,167.173630 316.097900,169.029907 
z"/>
<path fill="#777C7C" opacity="1.000000" stroke="none" 
	d="
M256.972412,273.002014 
	C249.938721,266.376831 241.174072,267.948822 232.797958,268.085114 
	C229.226486,268.143188 225.631378,268.839233 223.706055,272.728302 
	C223.215881,273.718384 221.797760,274.249054 220.445480,274.991394 
	C221.474792,271.444794 222.864655,267.897644 224.942841,264.133972 
	C227.555206,263.515594 229.708847,262.348053 231.363556,262.844269 
	C238.555557,265.000916 245.792709,265.589722 253.038544,263.886200 
	C257.916351,262.739441 259.831482,264.564117 260.083954,269.129211 
	C260.083954,269.129211 260.065948,269.038422 259.736755,269.082367 
	C258.954865,270.139221 258.502136,271.152130 258.049408,272.165039 
	C258.049408,272.165039 258.024078,272.597229 257.731018,272.795898 
	C257.437958,272.994537 256.972412,273.002014 256.972412,273.002014 
z"/>
<path fill="#858A8A" opacity="1.000000" stroke="none" 
	d="
M260.364929,268.993225 
	C259.831482,264.564117 257.916351,262.739441 253.038544,263.886200 
	C245.792709,265.589722 238.555557,265.000916 231.363556,262.844269 
	C229.708847,262.348053 227.555206,263.515594 225.249359,263.939636 
	C225.344894,262.415741 225.822250,260.869690 227.013580,259.155853 
	C229.975952,259.018250 232.229614,259.161469 234.471756,259.056976 
	C240.863724,258.759155 247.247879,258.164337 253.641098,258.062408 
	C258.932190,257.978058 261.615784,260.812653 262.049255,266.152557 
	C261.581482,267.054108 261.113678,267.955658 260.364929,268.993225 
z"/>
<path fill="#B7B9B9" opacity="1.000000" stroke="none" 
	d="
M386.208923,247.437775 
	C385.515656,246.159103 384.822388,244.880417 384.498230,243.112976 
	C391.281281,242.594955 397.695862,242.500031 404.109100,242.555573 
	C410.111542,242.607544 416.112579,242.818970 422.114258,242.960205 
	C423.336700,244.741531 424.559143,246.522858 425.485779,248.689178 
	C423.461365,248.717957 421.732727,248.361725 419.635498,247.964859 
	C408.247589,247.762070 397.228271,247.599930 386.208923,247.437775 
z"/>
<path fill="#A4A6A7" opacity="1.000000" stroke="none" 
	d="
M420.004120,248.005493 
	C421.732727,248.361725 423.461365,248.717957 425.517975,249.028641 
	C426.815155,250.429062 427.784332,251.875015 428.428802,253.702423 
	C426.409912,254.664215 424.712250,255.746033 423.022278,255.734177 
	C417.107483,255.692642 411.194397,255.045914 405.282501,255.070099 
	C400.504944,255.089661 395.730011,255.745148 390.953918,256.118561 
	C390.639313,255.653976 390.324707,255.189392 390.045288,254.020050 
	C391.530182,252.543594 392.938232,251.206207 394.436707,251.095795 
	C401.828979,250.551102 409.250458,250.410217 416.647461,249.914993 
	C417.803802,249.837570 418.887054,248.669342 420.004120,248.005493 
z"/>
<path fill="#D7D8D4" opacity="1.000000" stroke="none" 
	d="
M382.050781,165.531738 
	C380.566376,167.299255 379.505646,168.571533 376.758759,167.360306 
	C374.400146,166.320282 371.261047,167.056046 368.467316,166.995911 
	C360.470093,166.823776 352.472931,166.646240 344.209839,166.785797 
	C342.956848,165.317032 341.969788,163.533279 341.374146,161.378784 
	C354.791321,161.675720 367.817078,162.343384 380.842834,163.011047 
	C381.245941,163.741318 381.649017,164.471603 382.050781,165.531738 
z"/>
<path fill="#9D9FA0" opacity="1.000000" stroke="none" 
	d="
M234.582245,246.095245 
	C234.955765,247.094589 235.008545,248.217377 235.109863,250.050659 
	C236.806839,251.108841 238.450745,251.706467 240.104935,251.736511 
	C241.888382,251.768860 243.702911,250.950333 245.465988,251.068497 
	C249.241943,251.321579 252.987442,252.253143 256.756622,252.325974 
	C261.274872,252.413284 265.804840,251.895218 270.329712,251.639313 
	C268.447968,255.034164 266.566193,258.429016 264.349243,261.566742 
	C263.128174,255.116501 261.913879,254.337479 255.879730,255.481018 
	C253.994232,255.838318 251.979370,255.560455 250.025879,255.501358 
	C246.224289,255.386383 242.417160,255.318604 238.625854,255.044083 
	C235.699402,254.832169 232.793640,254.334503 229.878677,253.963867 
	C231.339615,251.382156 232.800552,248.800430 234.582245,246.095245 
z"/>
<path fill="#CBCDC9" opacity="1.000000" stroke="none" 
	d="
M273.022766,241.071808 
	C272.237457,241.936615 271.449463,243.553665 270.667267,243.550873 
	C262.024109,243.519867 253.382629,243.166107 244.738892,243.076385 
	C242.747528,243.055710 240.749191,243.706787 238.941925,244.016525 
	C238.843277,242.933151 238.712311,241.495071 238.258759,240.019135 
	C239.360474,237.066147 240.784790,234.151016 242.527145,231.086731 
	C243.143127,231.137146 243.441086,231.336685 243.832520,232.126892 
	C242.981689,234.549255 242.037369,236.380981 240.674088,239.025391 
	C243.888306,239.271271 246.274628,239.638016 248.654755,239.601334 
	C255.743317,239.492096 262.829132,239.138031 269.916840,239.114044 
	C270.949890,239.110535 271.987335,240.387390 273.022766,241.071808 
z"/>
<path fill="#ADAFB0" opacity="1.000000" stroke="none" 
	d="
M354.892609,188.049728 
	C354.595642,187.582764 354.298676,187.115799 354.237610,186.231934 
	C359.027832,184.877502 363.546387,183.632843 368.147461,183.096375 
	C372.062744,182.639862 376.123444,183.386459 380.026123,182.879486 
	C383.373352,182.444672 386.587860,180.988586 389.861084,179.984131 
	C390.896576,182.075790 391.932098,184.167435 392.745789,186.774902 
	C392.038330,187.704697 391.533936,188.499252 391.069855,188.476349 
	C382.318237,188.044495 373.576141,187.371918 364.821106,187.081573 
	C361.525940,186.972321 358.202911,187.702332 354.892609,188.049728 
z"/>
<path fill="#A4A6A7" opacity="1.000000" stroke="none" 
	d="
M288.592194,147.107193 
	C289.839783,146.506317 290.774780,146.052338 292.219482,145.363678 
	C294.330566,145.522903 295.914307,146.148148 297.536316,146.272003 
	C306.020325,146.919891 314.514069,147.440567 322.948914,148.397644 
	C321.252289,149.525848 319.626831,150.854095 317.967438,150.897949 
	C309.693573,151.116608 301.408051,150.885651 293.133392,151.088974 
	C291.407135,151.131409 289.709564,152.339981 287.695190,153.141769 
	C286.558289,153.498871 285.724976,153.725357 284.891663,153.951843 
	C286.020966,151.719254 287.150299,149.486679 288.592194,147.107193 
z"/>
<path fill="#C1C3C1" opacity="1.000000" stroke="none" 
	d="
M389.869202,179.688782 
	C386.587860,180.988586 383.373352,182.444672 380.026123,182.879486 
	C376.123444,183.386459 372.062744,182.639862 368.147461,183.096375 
	C363.546387,183.632843 359.027832,184.877502 354.192657,185.929443 
	C352.677979,183.950104 351.444153,181.856369 350.085083,179.438782 
	C349.959900,179.114944 349.816742,178.891541 350.358765,178.900208 
	C363.553650,178.600067 376.206543,178.291260 388.859436,177.982452 
	C389.198730,178.452759 389.538025,178.923080 389.869202,179.688782 
z"/>
<path fill="#B7B9B9" opacity="1.000000" stroke="none" 
	d="
M336.109192,151.312531 
	C343.782837,151.011765 351.456696,151.094955 359.127167,150.969650 
	C362.903900,150.907959 367.059357,152.193573 370.093292,148.458725 
	C370.323730,148.175064 371.606781,148.746475 372.763702,148.934174 
	C373.751556,150.039703 374.376282,151.131454 374.852173,152.832428 
	C371.373718,153.995071 368.061462,154.849869 364.711090,155.042923 
	C356.140442,155.536774 347.552826,155.736008 338.972015,156.053070 
	C338.972015,156.053070 338.600677,155.920181 338.711243,155.456528 
	C338.272095,154.331924 337.722351,153.670975 337.172607,153.010025 
	C336.817719,152.543549 336.462860,152.077057 336.109192,151.312531 
z"/>
<path fill="#909393" opacity="1.000000" stroke="none" 
	d="
M349.093140,103.643066 
	C344.736786,104.952766 340.350372,106.382492 335.858063,106.909409 
	C327.575195,107.880959 319.230164,108.322479 310.521210,108.987289 
	C311.528015,106.773712 312.924652,104.557701 315.080994,102.579071 
	C316.798706,103.011841 317.765594,103.412148 318.713318,103.371010 
	C328.506378,102.945908 338.296387,102.449532 348.087219,101.972992 
	C348.396576,102.433937 348.705933,102.894890 349.093140,103.643066 
z"/>
<path fill="#909393" opacity="1.000000" stroke="none" 
	d="
M390.964508,256.408844 
	C395.730011,255.745148 400.504944,255.089661 405.282501,255.070099 
	C411.194397,255.045914 417.107483,255.692642 423.022278,255.734177 
	C424.712250,255.746033 426.409912,254.664215 428.464905,254.030579 
	C429.292389,255.412827 429.759033,256.848389 430.145447,258.579010 
	C429.299225,259.383942 428.519806,260.356293 427.769318,260.334442 
	C416.270081,259.999756 404.774597,259.535400 392.750183,259.148254 
	C391.806458,258.363220 391.390778,257.531189 390.964508,256.408844 
z"/>
<path fill="#CBCDC9" opacity="1.000000" stroke="none" 
	d="
M422.056458,242.594116 
	C416.112579,242.818970 410.111542,242.607544 404.109100,242.555573 
	C397.695862,242.500031 391.281281,242.594955 384.515259,242.791168 
	C383.826324,242.514206 383.489441,242.070282 383.061981,241.357635 
	C384.660034,240.393860 386.334229,239.142395 388.039642,239.098297 
	C396.226379,238.886642 404.421539,239.001312 412.613708,239.000183 
	C414.207855,238.999969 415.802032,239.000153 417.660309,239.000153 
	C417.004395,236.171112 416.497894,233.986588 415.993866,231.406479 
	C416.002655,230.819290 416.009003,230.627670 416.029419,230.148834 
	C417.030884,231.629135 418.018280,233.396652 419.097107,235.743469 
	C419.323273,236.623367 419.541077,236.840668 419.841980,236.974701 
	C420.560852,238.725815 421.279755,240.476929 422.056458,242.594116 
z"/>
<path fill="#CBCDC9" opacity="1.000000" stroke="none" 
	d="
M322.121033,159.031006 
	C320.970154,161.251251 319.819275,163.471481 317.986145,165.783600 
	C315.264465,164.914352 313.288025,163.320175 311.173859,163.109726 
	C304.602020,162.455566 297.966492,162.463654 291.380615,161.915436 
	C289.213837,161.735077 287.123077,160.641861 285.003632,159.611588 
	C286.109497,158.461639 287.270935,156.912781 288.298737,156.996918 
	C293.676361,157.437119 299.018768,158.837616 304.376007,158.850723 
	C309.912964,158.864273 315.452850,157.669876 321.024109,157.313263 
	C321.411530,158.092072 321.766266,158.561539 322.121033,159.031006 
z"/>
<path fill="#F4F4F2" opacity="1.000000" stroke="none" 
	d="
M275.558411,171.062241 
	C283.789917,170.294815 291.716278,169.471359 299.664001,169.072128 
	C303.791229,168.864807 307.956146,169.407410 312.104034,169.611237 
	C312.159668,170.349335 312.215271,171.087433 312.270874,171.825531 
	C309.841095,172.225967 307.424896,172.775589 304.978943,172.997574 
	C298.811798,173.557281 292.631226,173.969376 285.885620,174.770645 
	C284.223511,175.380157 283.131897,175.659668 281.982025,175.620148 
	C280.948944,175.212448 279.974121,175.123779 278.668671,175.035248 
	C277.897308,175.042770 277.456573,175.050125 276.831055,174.787399 
	C275.809479,174.341843 274.972687,174.166367 274.135864,173.990891 
	C274.511292,173.054642 274.886688,172.118378 275.558411,171.062241 
z"/>
<path fill="#C1C3C1" opacity="1.000000" stroke="none" 
	d="
M320.991455,157.003906 
	C315.452850,157.669876 309.912964,158.864273 304.376007,158.850723 
	C299.018768,158.837616 293.676361,157.437119 288.298737,156.996918 
	C287.270935,156.912781 286.109497,158.461639 284.702820,159.764420 
	C283.219330,160.839874 282.042694,161.408005 280.866089,161.976120 
	C281.999695,159.411575 283.133301,156.847015 284.579285,154.117157 
	C285.724976,153.725357 286.558289,153.498871 287.929657,153.438889 
	C290.674866,154.065231 292.898773,154.984207 295.086182,154.904205 
	C303.821777,154.584671 312.546021,153.954468 321.943176,153.399765 
	C321.591553,154.731308 321.291504,155.867599 320.991455,157.003906 
z"/>
<path fill="#737777" opacity="1.000000" stroke="none" 
	d="
M399.067932,197.632599 
	C386.347229,197.979645 373.572388,197.994492 360.350098,198.022675 
	C359.264313,196.929367 358.625916,195.822723 358.362854,194.378937 
	C371.529724,194.017578 384.321350,193.993378 397.112946,193.969177 
	C397.746552,195.079575 398.380157,196.189987 399.067932,197.632599 
z"/>
<path fill="#858A8A" opacity="1.000000" stroke="none" 
	d="
M397.043121,193.638275 
	C384.321350,193.993378 371.529724,194.017578 358.306488,194.049469 
	C357.548615,194.003433 357.294434,193.838593 357.058136,192.977142 
	C357.262665,191.837692 357.527893,190.796844 357.779144,190.800217 
	C367.046295,190.924591 376.312042,191.274811 385.578217,191.280884 
	C388.660278,191.282913 391.742920,190.435928 394.825287,189.977081 
	C395.541290,191.087173 396.257294,192.197281 397.043121,193.638275 
z"/>
<path fill="#989C9D" opacity="1.000000" stroke="none" 
	d="
M394.806183,189.665451 
	C391.742920,190.435928 388.660278,191.282913 385.578217,191.280884 
	C376.312042,191.274811 367.046295,190.924591 357.779144,190.800217 
	C357.527893,190.796844 357.262665,191.837692 356.984955,192.756348 
	C356.302002,191.673065 355.638062,190.225052 354.933350,188.413391 
	C358.202911,187.702332 361.525940,186.972321 364.821106,187.081573 
	C373.576141,187.371918 382.318237,188.044495 391.069855,188.476349 
	C391.533936,188.499252 392.038330,187.704697 392.797089,187.133621 
	C393.642487,187.768967 394.214783,188.561401 394.806183,189.665451 
z"/>
<path fill="#D7D8D4" opacity="1.000000" stroke="none" 
	d="
M280.561615,162.097519 
	C282.042694,161.408005 283.219330,160.839874 284.696777,160.118912 
	C287.123077,160.641861 289.213837,161.735077 291.380615,161.915436 
	C297.966492,162.463654 304.602020,162.455566 311.173859,163.109726 
	C313.288025,163.320175 315.264465,164.914352 317.677490,165.945953 
	C317.600311,166.947098 317.149536,167.877777 316.398315,168.919189 
	C314.455872,167.173630 312.971069,166.502808 309.962799,166.556641 
	C302.049164,166.698257 294.114258,165.295578 286.175964,164.654984 
	C284.118561,164.488953 282.017609,164.863235 279.549377,165.001465 
	C279.527100,164.082031 279.892151,163.150482 280.561615,162.097519 
z"/>
<path fill="#989C9D" opacity="1.000000" stroke="none" 
	d="
M323.004425,148.005493 
	C314.514069,147.440567 306.020325,146.919891 297.536316,146.272003 
	C295.914307,146.148148 294.330566,145.522903 292.371582,145.072723 
	C294.081268,139.643936 298.779968,142.647415 301.900391,142.567917 
	C309.962463,142.362503 318.060516,143.421753 326.135406,144.083145 
	C327.004578,144.154343 327.816071,144.930008 328.841919,145.720779 
	C327.617157,148.381058 326.204803,150.699463 324.423950,152.740311 
	C323.705109,150.977020 323.354767,149.491257 323.004425,148.005493 
z"/>
<path fill="#CBCDC9" opacity="1.000000" stroke="none" 
	d="
M380.831909,162.670868 
	C367.817078,162.343384 354.791321,161.675720 341.329956,161.018921 
	C340.267273,160.051544 339.640167,159.073288 339.557556,157.929871 
	C352.486572,159.510788 364.849976,160.296051 377.122467,156.950073 
	C378.355286,158.743622 379.588135,160.537170 380.831909,162.670868 
z"/>
<path fill="#D7D8D4" opacity="1.000000" stroke="none" 
	d="
M388.864838,177.662491 
	C376.206543,178.291260 363.553650,178.600067 350.440247,178.795547 
	C351.591125,177.457535 353.153015,175.260376 354.822296,175.175537 
	C362.274811,174.796692 369.757996,175.032974 377.230072,175.021469 
	C380.278473,175.016769 383.326813,174.947174 386.738098,174.940872 
	C387.690765,175.763931 388.280487,176.553223 388.864838,177.662491 
z"/>
<path fill="#909393" opacity="1.000000" stroke="none" 
	d="
M229.572433,254.112000 
	C232.793640,254.334503 235.699402,254.832169 238.625854,255.044083 
	C242.417160,255.318604 246.224289,255.386383 250.025879,255.501358 
	C251.979370,255.560455 253.994232,255.838318 255.879730,255.481018 
	C261.913879,254.337479 263.128174,255.116501 264.027649,261.719116 
	C263.575592,263.360504 263.109955,264.592377 262.346802,265.988403 
	C261.615784,260.812653 258.932190,257.978058 253.641098,258.062408 
	C247.247879,258.164337 240.863724,258.759155 234.471756,259.056976 
	C232.229614,259.161469 229.975952,259.018250 227.317734,258.978699 
	C227.694016,257.399597 228.480103,255.829849 229.572433,254.112000 
z"/>
<path fill="#ADAFB0" opacity="1.000000" stroke="none" 
	d="
M277.650879,223.081039 
	C278.742249,227.630966 275.862579,226.664948 273.165924,226.631271 
	C264.782104,226.526566 256.394379,226.627930 248.010361,226.775696 
	C246.958832,226.794235 245.920639,227.569275 244.522064,228.007690 
	C245.222549,226.067551 246.277252,224.113541 247.703186,222.363434 
	C248.509567,222.989273 248.955872,223.788406 249.378113,223.775894 
	C254.779633,223.615631 260.177734,223.339203 265.656158,223.088623 
	C265.449799,222.088211 265.221741,220.982727 264.993713,219.877243 
	C269.083801,220.916458 273.173889,221.955658 277.650879,223.081039 
z"/>
<path fill="#C1C3C1" opacity="1.000000" stroke="none" 
	d="
M310.100464,180.046570 
	C307.393677,187.781189 305.955933,188.529388 298.902313,185.919220 
	C295.507202,184.662872 292.100494,183.437790 288.365143,181.617447 
	C288.620422,180.381088 289.144806,179.239212 289.809448,179.150757 
	C293.683899,178.634933 297.601898,178.013382 301.484009,178.130356 
	C304.372772,178.217392 307.229492,179.369064 310.100464,180.046570 
z"/>
<path fill="#C1C3C1" opacity="1.000000" stroke="none" 
	d="
M377.069458,156.604797 
	C364.849976,160.296051 352.486572,159.510788 339.628052,157.627914 
	C339.109192,157.106125 339.064301,156.721130 338.995728,156.194611 
	C347.552826,155.736008 356.140442,155.536774 364.711090,155.042923 
	C368.061462,154.849869 371.373718,153.995071 374.874268,153.168945 
	C375.702240,154.017334 376.359344,155.138428 377.069458,156.604797 
z"/>
<path fill="#ADAFB0" opacity="1.000000" stroke="none" 
	d="
M322.948914,148.397644 
	C323.354767,149.491257 323.705109,150.977020 324.066650,152.803040 
	C323.630249,155.022675 323.182648,156.902054 322.428040,158.906219 
	C321.766266,158.561539 321.411530,158.092072 321.024109,157.313263 
	C321.291504,155.867599 321.591553,154.731308 321.943176,153.399765 
	C312.546021,153.954468 303.821777,154.584671 295.086182,154.904205 
	C292.898773,154.984207 290.674866,154.065231 288.233246,153.308273 
	C289.709564,152.339981 291.407135,151.131409 293.133392,151.088974 
	C301.408051,150.885651 309.693573,151.116608 317.967438,150.897949 
	C319.626831,150.854095 321.252289,149.525848 322.948914,148.397644 
z"/>
<path fill="#D7D8D4" opacity="1.000000" stroke="none" 
	d="
M310.409424,179.883118 
	C307.229492,179.369064 304.372772,178.217392 301.484009,178.130356 
	C297.601898,178.013382 293.683899,178.634933 289.809448,179.150757 
	C289.144806,179.239212 288.620422,180.381088 288.006012,181.435822 
	C284.555847,180.950989 281.130890,180.066681 277.350464,178.630463 
	C277.001923,177.071518 277.008881,176.064499 277.015808,175.057480 
	C277.456573,175.050125 277.897308,175.042770 278.879303,175.294937 
	C280.293762,175.682709 281.167023,175.810928 282.040253,175.939148 
	C283.131897,175.659668 284.223511,175.380157 285.655334,175.084412 
	C286.797943,175.618820 287.616913,176.667511 288.400116,176.641464 
	C294.779327,176.429337 301.158600,176.103348 307.521729,175.605499 
	C309.193451,175.474716 310.808685,174.622284 312.781982,174.074371 
	C312.315552,175.938202 311.516968,177.828934 310.409424,179.883118 
z"/>
<path fill="#9D9FA0" opacity="1.000000" stroke="none" 
	d="
M347.983337,101.672668 
	C338.296387,102.449532 328.506378,102.945908 318.713318,103.371010 
	C317.765594,103.412148 316.798706,103.011841 315.413208,102.627983 
	C314.859436,102.146515 314.803680,101.840553 315.402100,101.304779 
	C325.594269,95.520485 335.781677,98.125504 345.844574,98.972839 
	C346.522888,99.772675 347.201202,100.572510 347.983337,101.672668 
z"/>
<path fill="#A4A6A7" opacity="1.000000" stroke="none" 
	d="
M270.600586,251.391663 
	C265.804840,251.895218 261.274872,252.413284 256.756622,252.325974 
	C252.987442,252.253143 249.241943,251.321579 245.465988,251.068497 
	C243.702911,250.950333 241.888382,251.768860 240.104935,251.736511 
	C238.450745,251.706467 236.806839,251.108841 235.080170,250.378754 
	C237.931076,249.330994 240.867828,248.079559 243.787918,248.117264 
	C250.752090,248.207184 257.705750,249.153137 264.669312,249.228195 
	C267.215118,249.255630 269.776886,247.798737 272.714050,247.030945 
	C272.354980,248.409927 271.613220,249.776962 270.600586,251.391663 
z"/>
<path fill="#7B7F80" opacity="1.000000" stroke="none" 
	d="
M241.006744,280.995117 
	C242.071091,280.994293 243.135422,280.993500 244.814987,281.258179 
	C246.957153,281.342224 248.484085,281.160858 250.011032,280.979462 
	C251.069427,281.295349 252.127823,281.611206 253.516968,281.971619 
	C253.271988,282.829651 252.696304,283.643188 251.793991,284.865479 
	C251.225983,285.511688 251.089890,285.799042 251.059097,286.136292 
	C251.059097,286.136292 251.046417,286.044891 250.662430,285.989960 
	C240.066376,285.098785 229.854309,284.262573 218.836105,283.360352 
	C218.730133,282.962097 218.318069,281.413727 217.906006,279.865326 
	C217.906006,279.865326 217.981598,279.942657 218.219681,279.963715 
	C218.651947,279.987030 218.846130,279.989288 219.040314,279.991577 
	C219.780029,279.993042 220.519745,279.994537 221.792328,280.309937 
	C222.858337,280.985596 223.400543,281.673492 223.923264,281.659027 
	C229.619507,281.501038 235.312714,281.233093 241.006744,280.995117 
z"/>
<path fill="#6F7373" opacity="1.000000" stroke="none" 
	d="
M368.456970,208.992920 
	C368.102966,206.034409 371.354431,205.113388 375.845856,205.310532 
	C384.322327,205.682587 392.830261,205.336411 401.712463,205.118896 
	C402.404236,205.726486 402.708679,206.503876 403.050690,207.616821 
	C395.970154,208.437683 388.857941,209.071686 381.731781,209.352417 
	C377.473694,209.520157 373.193787,209.134277 368.456970,208.992920 
z"/>
<path fill="#858A8A" opacity="1.000000" stroke="none" 
	d="
M217.553619,280.053009 
	C218.318069,281.413727 218.730133,282.962097 218.836105,283.360352 
	C229.854309,284.262573 240.066376,285.098785 250.701767,286.014069 
	C249.730789,286.726440 248.344635,287.886993 246.940872,287.908691 
	C236.771027,288.065857 226.597610,287.993042 215.239792,287.993042 
	C216.151657,284.388977 216.676437,282.314850 217.553619,280.053009 
z"/>
<path fill="#ADAFB0" opacity="1.000000" stroke="none" 
	d="
M419.635498,247.964859 
	C418.887054,248.669342 417.803802,249.837570 416.647461,249.914993 
	C409.250458,250.410217 401.828979,250.551102 394.436707,251.095795 
	C392.938232,251.206207 391.530182,252.543594 390.020813,253.715393 
	C388.839996,252.093674 387.718781,250.071869 386.403259,247.743927 
	C397.228271,247.599930 408.247589,247.762070 419.635498,247.964859 
z"/>
<path fill="#B7B9B9" opacity="1.000000" stroke="none" 
	d="
M345.899780,98.586327 
	C335.781677,98.125504 325.594269,95.520485 315.511902,101.082993 
	C315.430237,96.297737 317.888031,94.552330 322.746277,94.887878 
	C328.691315,95.298492 334.703461,94.725266 340.651245,95.115761 
	C342.478760,95.235756 344.190338,97.122231 345.899780,98.586327 
z"/>
<path fill="#989C9D" opacity="1.000000" stroke="none" 
	d="
M369.687195,143.084259 
	C369.655151,143.654099 369.324402,144.569977 368.940460,144.592850 
	C360.212189,145.112991 351.481110,145.700851 342.742950,145.860123 
	C340.551819,145.900070 338.334503,144.504593 336.059601,143.401596 
	C339.701538,142.755096 343.410828,142.289246 347.125305,142.243195 
	C351.886597,142.184174 356.652100,142.462891 361.707581,142.299576 
	C363.664429,142.006531 365.329468,142.009979 367.409729,142.019775 
	C368.337891,142.355530 368.850830,142.684937 369.687195,143.084259 
z"/>
<path fill="#A4A6A7" opacity="1.000000" stroke="none" 
	d="
M264.778748,219.548050 
	C265.221741,220.982727 265.449799,222.088211 265.656158,223.088623 
	C260.177734,223.339203 254.779633,223.615631 249.378113,223.775894 
	C248.955872,223.788406 248.509567,222.989273 248.017105,222.214340 
	C250.685242,217.320999 254.392853,215.865189 259.436066,217.970444 
	C261.039581,218.639816 262.848724,218.816635 264.778748,219.548050 
z"/>
<path fill="#F4F4F2" opacity="1.000000" stroke="none" 
	d="
M439.885376,75.526176 
	C439.222382,76.782700 438.557190,77.969238 437.544464,78.559616 
	C435.906799,79.514320 434.040680,80.077141 430.993164,81.331345 
	C430.894989,81.277771 429.536499,80.536415 427.597198,79.478096 
	C432.998474,76.309097 431.141113,74.389992 427.330048,72.535622 
	C426.079315,71.927048 425.176239,70.603928 424.086060,69.257050 
	C427.536804,70.310913 431.014099,71.719269 434.495239,73.117989 
	C436.235596,73.817245 437.983002,74.498940 439.885376,75.526176 
z"/>
<path fill="#CBCDC9" opacity="1.000000" stroke="none" 
	d="
M353.449280,240.872650 
	C353.674255,239.869263 354.341156,238.178955 355.051300,238.160568 
	C361.637024,237.990189 368.231689,238.050308 374.818939,238.225952 
	C375.519989,238.244644 376.190002,239.428207 376.942627,240.451691 
	C369.310974,240.875107 361.611145,240.918198 353.449280,240.872650 
z"/>
<path fill="#F4F4F2" opacity="1.000000" stroke="none" 
	d="
M299.969421,116.679749 
	C295.082489,115.808426 297.694702,112.822159 298.811768,111.046265 
	C301.940460,106.072365 305.543060,101.396553 309.003296,96.242035 
	C309.595093,97.199432 310.989044,99.009399 310.554474,99.758087 
	C307.276031,105.406570 303.638245,110.846489 299.969421,116.679749 
z"/>
<path fill="#F4F4F2" opacity="1.000000" stroke="none" 
	d="
M330.650085,229.694153 
	C329.870483,229.643829 328.527283,229.810867 328.346680,229.428589 
	C326.779846,226.112366 325.242737,222.758682 324.058350,219.292587 
	C323.113861,216.528412 322.675110,213.591431 322.024841,210.318054 
	C326.821472,214.639954 328.923553,220.618149 330.086792,227.933990 
	C330.296326,229.078979 330.416504,229.363007 330.536682,229.647018 
	C330.536682,229.647018 330.625488,229.656830 330.650085,229.694153 
z"/>
<path fill="#E6E7E4" opacity="1.000000" stroke="none" 
	d="
M315.350952,92.021332 
	C315.310120,88.430336 317.799866,89.450172 319.724670,89.629784 
	C324.091949,90.037315 328.445496,90.592239 332.911255,91.461891 
	C327.251556,91.959373 321.485168,92.082214 315.350952,92.021332 
z"/>
<path fill="#F4F4F2" opacity="1.000000" stroke="none" 
	d="
M421.507629,67.975464 
	C418.275330,68.880386 410.314514,65.962822 408.850098,63.149460 
	C413.141693,64.557266 417.175781,66.160477 421.507629,67.975464 
z"/>
<path fill="#E6E7E4" opacity="1.000000" stroke="none" 
	d="
M276.831055,174.787399 
	C277.008881,176.064499 277.001923,177.071518 276.991028,178.457352 
	C275.661621,178.128052 274.336090,177.419937 273.281189,176.208099 
	C273.758789,175.459213 273.893890,175.179306 273.957001,174.864655 
	C273.957001,174.864655 273.986694,174.415527 274.061279,174.203217 
	C274.972687,174.166367 275.809479,174.341843 276.831055,174.787399 
z"/>
<path fill="#858A8A" opacity="1.000000" stroke="none" 
	d="
M258.338989,272.011017 
	C258.502136,271.152130 258.954865,270.139221 259.778259,269.102783 
	C259.642181,270.005157 259.135376,270.931061 258.338989,272.011017 
z"/>
<path fill="#C1C3C1" opacity="1.000000" stroke="none" 
	d="
M337.101624,153.341583 
	C337.722351,153.670975 338.272095,154.331924 338.583740,155.306091 
	C337.907318,154.970566 337.468964,154.321854 337.101624,153.341583 
z"/>
<path fill="#777C7C" opacity="1.000000" stroke="none" 
	d="
M255.323547,278.987427 
	C255.166061,278.563049 255.288071,277.989685 255.642365,277.229065 
	C255.784119,277.640686 255.693588,278.239563 255.323547,278.987427 
z"/>
<path fill="#858A8A" opacity="1.000000" stroke="none" 
	d="
M219.027832,279.628723 
	C218.846130,279.989288 218.651947,279.987030 218.167145,279.950928 
	C218.049347,279.319946 218.222183,278.722809 218.672897,277.968689 
	C218.972290,278.296417 218.993820,278.781128 219.027832,279.628723 
z"/>
<path fill="#777C7C" opacity="1.000000" stroke="none" 
	d="
M219.713501,275.932434 
	C219.806686,276.112396 219.663452,276.412140 219.304596,276.843384 
	C219.218338,276.667297 219.347717,276.359802 219.713501,275.932434 
z"/>
<path fill="#777C7C" opacity="1.000000" stroke="none" 
	d="
M256.289642,276.058380 
	C256.087799,275.817871 256.233276,275.523743 256.694397,275.152283 
	C256.784729,275.334930 256.660400,275.644897 256.289642,276.058380 
z"/>
<path fill="#858A8A" opacity="1.000000" stroke="none" 
	d="
M331.061523,211.265717 
	C331.276947,211.194214 331.451477,211.346451 331.582153,211.529922 
	C331.608551,211.567032 331.469055,211.722290 331.243713,211.900177 
	C331.081360,211.977280 331.005157,211.500473 331.061523,211.265717 
z"/>
<path fill="#858A8A" opacity="1.000000" stroke="none" 
	d="
M256.986694,273.292236 
	C256.972412,273.002014 257.437958,272.994537 257.669952,273.003540 
	C257.783020,273.325623 257.664093,273.638672 257.294281,274.056885 
	C257.029297,273.968842 257.015137,273.775665 256.986694,273.292236 
z"/>
<path fill="#858A8A" opacity="1.000000" stroke="none" 
	d="
M331.038940,218.289642 
	C331.302917,218.226685 331.559723,218.440903 331.871399,218.909180 
	C331.628082,218.964417 331.329926,218.765610 331.038940,218.289642 
z"/>
<path fill="#F4F4F2" opacity="1.000000" stroke="none" 
	d="
M273.705872,174.958557 
	C273.893890,175.179306 273.758789,175.459213 273.357971,175.837265 
	C273.261078,175.664261 273.357910,175.358368 273.705872,174.958557 
z"/>
<path fill="#FEFEFE" opacity="1.000000" stroke="none" 
	d="
M330.754852,229.439423 
	C330.416504,229.363007 330.296326,229.078979 330.107269,228.337524 
	C330.349945,228.330658 330.661469,228.781235 330.754852,229.439423 
z"/>
<path fill="#F4F4F2" opacity="1.000000" stroke="none" 
	d="
M424.001709,68.656998 
	C423.773315,68.874771 423.455688,68.806976 422.709595,68.498917 
	C422.824921,68.296242 423.368652,68.333832 424.001709,68.656998 
z"/>
<path fill="#858A8A" opacity="1.000000" stroke="none" 
	d="
M251.308929,286.045288 
	C251.089890,285.799042 251.225983,285.511688 251.676102,285.151764 
	C251.776138,285.337616 251.667450,285.645935 251.308929,286.045288 
z"/>
<path fill="#D7D8D4" opacity="1.000000" stroke="none" 
	d="
M419.875366,236.709625 
	C419.541077,236.840668 419.323273,236.623367 419.113251,236.100067 
	C419.328247,236.066406 419.618500,236.255478 419.875366,236.709625 
z"/>
<path fill="#777C7C" opacity="1.000000" stroke="none" 
	d="
M240.914047,280.601257 
	C235.312714,281.233093 229.619507,281.501038 223.923264,281.659027 
	C223.400543,281.673492 222.858337,280.985596 222.162186,280.310120 
	C224.054962,279.515778 226.135727,278.550751 228.161316,278.655304 
	C232.396744,278.873871 236.603073,279.656464 240.914047,280.601257 
z"/>
<path fill="#777C7C" opacity="1.000000" stroke="none" 
	d="
M249.776337,280.715149 
	C248.484085,281.160858 246.957153,281.342224 245.214111,281.257294 
	C246.512558,280.810913 248.027100,280.630859 249.776337,280.715149 
z"/>
<path fill="#D7D8D4" opacity="1.000000" stroke="none" 
	d="
M273.276978,241.056747 
	C271.987335,240.387390 270.949890,239.110535 269.916840,239.114044 
	C262.829132,239.138031 255.743317,239.492096 248.654755,239.601334 
	C246.274628,239.638016 243.888306,239.271271 240.674088,239.025391 
	C242.037369,236.380981 242.981689,234.549255 243.963226,232.365173 
	C252.741257,232.007675 261.487061,231.836761 270.219757,232.100739 
	C272.767212,232.177734 275.277161,233.494812 277.804321,234.243484 
	C276.643158,236.293808 275.481964,238.344116 274.180511,240.708282 
	C273.870575,241.028656 273.700897,241.035187 273.276978,241.056747 
z"/>
<path fill="#E6E7E4" opacity="1.000000" stroke="none" 
	d="
M281.982025,175.620132 
	C281.167023,175.810928 280.293762,175.682709 279.209900,175.294800 
	C279.974121,175.123779 280.948944,175.212448 281.982025,175.620132 
z"/>
</svg>